<?xml version="1.0" standalone="no"?>
<!DOCTYPE svg PUBLIC "-//W3C//DTD SVG 20010904//EN"
 "http://www.w3.org/TR/2001/REC-SVG-20010904/DTD/svg10.dtd">
<svg version="1.0" xmlns="http://www.w3.org/2000/svg"
 width="700.000000pt" height="700.000000pt" viewBox="0 0 700.000000 700.000000"
 preserveAspectRatio="xMidYMid meet">
<metadata>
Created by potrace 1.11, written by Peter Selinger 2001-2013
</metadata>
<g transform="translate(0.000000,700.000000) scale(0.100000,-0.100000)"
fill="#000000" stroke="none">
<path d="M3270 6997 c-3 -2 -39 -8 -80 -11 -95 -9 -210 -24 -275 -36 -27 -5
-61 -12 -75 -14 -285 -52 -579 -149 -865 -287 -467 -224 -900 -572 -1224 -984
-244 -311 -435 -661 -562 -1030 -41 -121 -112 -386 -123 -460 -3 -22 -8 -51
-11 -65 -11 -54 -15 -74 -21 -129 -3 -31 -8 -64 -10 -74 -20 -106 -27 -569
-11 -717 9 -81 25 -209 32 -250 6 -30 23 -127 29 -156 22 -110 98 -383 125
-449 5 -11 28 -69 51 -130 112 -290 291 -602 497 -865 148 -189 374 -418 546
-555 21 -16 44 -35 50 -41 44 -38 248 -179 342 -236 286 -172 594 -303 907
-387 119 -32 328 -75 413 -85 28 -3 66 -8 85 -11 131 -16 201 -20 410 -20 279
0 355 7 640 56 205 35 542 135 697 205 28 13 55 24 58 24 13 0 306 150 382
195 209 125 391 260 559 412 104 94 255 246 309 313 21 25 41 47 44 50 14 9
186 244 243 330 253 383 439 858 517 1325 41 246 53 404 48 639 -3 121 -7 237
-10 256 -3 19 -11 79 -17 134 -13 106 -14 113 -36 226 -8 41 -17 86 -20 100
-11 56 -77 288 -110 383 -268 771 -804 1428 -1517 1856 -178 107 -477 246
-652 302 -33 10 -80 25 -105 34 -176 57 -404 103 -695 141 -55 7 -559 17 -565
11z m-5 -1183 l0 -679 -567 -1 c-424 0 -568 3 -568 11 0 21 97 259 153 375 83
172 180 334 266 445 17 22 41 54 53 70 47 63 248 253 322 303 111 76 301 166
331 158 7 -2 10 -238 10 -682z m526 670 c63 -19 185 -79 255 -125 250 -166
491 -466 668 -834 59 -120 156 -358 156 -380 0 -8 -145 -11 -568 -12 l-568 0
0 684 c0 375 0 683 1 683 1 0 26 -7 56 -16z m-1679 -361 c-115 -172 -230 -379
-291 -523 -13 -30 -33 -77 -46 -105 -25 -56 -59 -149 -103 -275 l-30 -85 -346
-1 c-190 0 -346 2 -346 5 0 14 138 203 235 320 137 165 371 380 565 517 102
72 353 223 438 263 1 0 -33 -52 -76 -116z m2973 -38 c240 -151 452 -324 619
-504 23 -25 52 -56 66 -71 66 -69 280 -353 280 -371 0 -3 -156 -5 -346 -5
l-346 1 -38 110 c-70 205 -202 502 -290 650 -16 28 -37 64 -46 80 -24 43 -82
132 -126 192 -21 29 -38 55 -38 58 0 9 176 -84 265 -140z m-3571 -1444 c-6
-37 -22 -122 -29 -151 -3 -14 -7 -45 -10 -70 -4 -25 -10 -67 -15 -95 -5 -27
-12 -72 -15 -100 -17 -155 -26 -252 -32 -350 -3 -60 -7 -117 -8 -125 -2 -13
-61 -15 -463 -16 -317 0 -462 3 -463 10 -5 46 32 292 68 446 13 57 52 196 66
240 8 21 68 191 77 216 8 20 14 20 418 20 l410 0 -4 -25z m1752 -440 l-1 -466
-696 -1 -697 0 3 55 c12 194 17 266 20 271 2 3 6 37 10 75 3 39 8 81 10 95 4
27 10 68 20 140 3 25 17 98 31 164 13 65 24 122 24 125 0 4 287 7 638 7 l639
0 -1 -465z m1747 435 c3 -17 15 -74 26 -126 11 -52 22 -115 25 -140 3 -25 8
-54 10 -65 4 -23 12 -85 21 -165 3 -30 8 -66 10 -80 3 -14 7 -65 10 -115 3
-49 8 -117 10 -150 l5 -61 -688 1 c-378 1 -692 2 -698 3 -7 1 -10 140 -9 455
1 248 2 457 3 463 2 7 196 10 636 10 l634 0 5 -30z m1297 5 c51 -111 129 -377
163 -556 36 -186 37 -193 43 -270 3 -38 7 -72 9 -76 2 -3 -206 -6 -464 -6
-466 0 -467 0 -467 21 -2 56 -15 263 -19 281 -2 11 -7 52 -10 90 -3 39 -10 97
-15 130 -5 33 -12 80 -15 105 -6 44 -41 244 -50 285 -4 21 -2 21 405 21 l408
0 12 -25z m-4908 -1379 c4 -1 6 -10 6 -19 -2 -23 12 -239 17 -279 2 -17 7 -60
10 -95 3 -35 8 -75 10 -89 2 -14 11 -76 20 -138 9 -62 18 -122 21 -132 2 -11
6 -29 8 -39 6 -28 20 -114 21 -126 0 -11 -797 -17 -813 -6 -18 12 -141 384
-157 476 -3 17 -13 64 -21 105 -9 41 -17 86 -19 100 -1 14 -5 43 -8 65 -4 22
-9 67 -13 100 -3 33 -8 63 -10 67 -2 3 1 8 8 10 11 4 904 3 920 0z m1864 -461
l-1 -466 -636 -1 -636 -1 -22 106 c-11 58 -25 134 -31 169 -5 34 -14 88 -19
120 -9 50 -17 122 -27 217 -1 17 -5 68 -9 115 -3 47 -8 109 -11 138 -2 30 -2
57 0 61 3 4 317 7 699 7 l693 1 0 -466z m1859 395 c-3 -39 -7 -98 -9 -131 -12
-171 -45 -416 -81 -595 -9 -45 -19 -95 -21 -102 -1 -5 -2 -14 -3 -21 -1 -11
-119 -13 -639 -14 l-638 0 1 461 c1 254 3 464 3 467 1 3 315 5 697 5 l696 0
-6 -70z m1398 58 c-1 -6 -4 -38 -7 -70 -18 -209 -89 -511 -175 -744 l-39 -105
-410 -1 -410 -1 4 26 c3 14 11 60 19 101 18 91 23 121 30 180 3 25 7 56 10 70
6 30 13 84 21 165 3 33 7 71 10 85 2 14 7 86 10 160 4 74 10 138 15 141 18 11
924 5 922 -7z m-4833 -1524 c112 -322 241 -583 413 -841 42 -62 75 -115 73
-116 -2 -3 -154 76 -186 96 -8 6 -46 29 -85 52 -143 86 -349 244 -479 369
-139 132 -187 183 -292 315 -75 94 -184 245 -184 256 0 3 156 5 346 5 l346 -1
48 -135z m1576 -543 c0 -373 -3 -680 -7 -682 -19 -12 -211 73 -305 136 -253
169 -481 452 -663 823 -61 124 -161 368 -161 391 0 8 150 11 568 11 l567 -1 1
-678z m1604 668 c0 -23 -103 -274 -163 -395 -93 -190 -227 -402 -327 -515 -57
-65 -191 -198 -240 -236 -94 -76 -277 -178 -345 -193 -16 -4 -37 -9 -46 -12
-14 -4 -15 62 -14 668 1 370 3 678 3 684 3 15 1132 14 1132 -1z m1180 7 c0
-17 -213 -303 -270 -362 -182 -192 -244 -252 -360 -346 -123 -100 -283 -214
-300 -214 -5 0 -10 -4 -10 -10 0 -5 -5 -10 -10 -10 -6 0 -34 -15 -63 -33 -65
-41 -217 -120 -217 -112 0 3 17 29 38 58 117 161 245 391 350 633 31 70 129
330 147 389 3 11 695 17 695 7z"/>
</g>
</svg>
